<?xml version="1.0" encoding="UTF-8"?>
<!-- Generator: visioncortex VTracer 0.6.12 -->
<svg version="1.1" xmlns="http://www.w3.org/2000/svg" width="1408" height="768">
<path d="M0 0 C0.9771093750000546 -0.025781250000022737 1.9542187499999955 -0.05156249999998863 2.9609375 -0.078125 C5.625 0.25 5.625 0.25 7.4140625 1.515625 C9.672281652329957 4.749977592369362 9.752806005735351 8.132759222330264 9.778900146484375 11.987289428710938 C9.787500610351572 12.936361694335915 9.796101074218768 13.885433959960949 9.804962158203125 14.863265991210938 C9.80922210693359 15.897663116455078 9.813482055664053 16.93206024169922 9.81787109375 17.997802734375 C9.821959838867201 18.5451557922363 9.821959838867201 18.5451557922363 9.8426513671875 21.315093994140625 C9.867466883578118 24.937921690662108 9.884008321707825 28.560710412036656 9.8984375 32.18359375 C9.903761177062961 33.42036424636842 9.909084854125922 34.657134742736844 9.914569854736328 35.93138313293457 C9.938527506612672 41.7987958686233 9.957774655633102 47.66619253677948 9.97059190273285 53.53364032506943 C9.985669388304359 60.300702623784616 10.020800319221848 67.06728395581308 10.072593092918396 73.83416217565536 C10.115963883343738 79.7010473278591 10.131936885117625 85.56777059083367 10.138324737548828 91.43480110168457 C10.145052370537428 93.92872906746288 10.1603133175214 96.42264898502822 10.184215545654297 98.91647148132324 C10.215729843587383 102.40232206386418 10.215924259249391 105.88684791217622 10.20849609375 109.372802734375 C10.224901428222665 110.4051756286621 10.24130676269533 111.43754852294921 10.258209228515625 112.50120544433594 C10.216973965395937 117.21979753885256 10.173678335843533 119.50648078329829 7.307281494140625 123.39076232910156 C3.7499324494941675 125.85655772260867 1.8683775650075631 126.00774599375137 -2.375 125.25 C-6.153472462421519 122.31118808478328 -7.737998200453262 119.65731253724118 -9.375 115.25 C-10.015664062500036 115.79269531249997 -10.656328124999959 116.335390625 -11.31640625 116.89453125 C-21.22466554669643 125.0898873001737 -28.40854669707528 127.47069121052641 -41.375 126.25 C-50.204139827831455 124.10049737175831 -55.933363649210946 119.63036457863353 -61 112.25 C-70.21479322400728 97.04151383825348 -70.61291574991537 80.71872842095036 -66.81640625 63.75390625 C-64.03825621348903 54.073520097933965 -58.25330465822617 45.20493955211481 -49.375 40.25 C-39.17790006064217 35.550790009731315 -30.79089003975014 35.03338162967805 -20.24609375 38.7890625 C-16.263839645096596 40.815406765624346 -12.875331409175487 43.4903025350369 -9.375 46.25 C-9.390710449218773 45.13552490234372 -9.406420898437545 44.02104980468749 -9.422607421875 42.872802734375 C-9.477146311494835 38.714999428520116 -9.511436795963505 34.557227397183624 -9.539794921875 30.399169921875 C-9.554827158146736 28.60386832757598 -9.575258568767367 26.808603121331203 -9.601318359375 25.013427734375 C-9.637947860855206 22.424224737589782 -9.654782104923129 19.835509724015708 -9.66796875 17.24609375 C-9.683452606201172 16.45101913452146 -9.698936462402344 15.655944519042976 -9.714889526367188 14.836776733398438 C-9.716461615442768 9.562138402517917 -8.795311269336594 5.952483033814701 -6.375 1.25 C-4.642800717655518 -0.48219928234453846 -2.354731918134803 0.037082392411548426 0 0 Z M-43.83984375 58.8984375 C-50.639601127906985 67.92536178719251 -51.242147484338716 78.58254681335688 -49.75 89.5625 C-48.326858356667344 96.63108432118861 -45.765960355182074 102.7020177872609 -40 107.25 C-35.15945156328894 110.26491055648603 -30.501070313504442 110.59502618474676 -24.9375 109.8125 C-19.38443916085464 108.38863824637298 -15.544369723192517 104.94669042690299 -12.375 100.25 C-9.472259314940402 93.8809977426975 -8.825197337930717 87.74767829650807 -8.875 80.8125 C-8.877860107421839 80.3503308105469 -8.877860107421839 80.3503308105469 -8.892333984375 78.011474609375 C-9.102916186457378 69.99162515565843 -10.545719231810153 64.28876002246727 -16.16015625 58.3671875 C-21.350649173479383 53.62852092442432 -25.64073009584672 52.884937072504556 -32.5859375 52.9765625 C-37.4548934379726 53.453911121369856 -40.52852110936624 55.17209575507343 -43.83984375 58.8984375 Z " fill="#06B6CB" transform="translate(944.375,302.75)"/>
<path d="M0 0 C2.404060759314234 1.9232486074513986 3.6391953369544012 3.2783906739087456 5 6 C5.102480005157929 7.396972628347783 5.145818762460408 8.7985427849531 5.15771484375 10.19921875 C5.16797698974608 11.067724609374977 5.17823913574216 11.936230468750011 5.188812255859375 12.8310546875 C5.196113586425781 13.773681640625 5.2034149169921875 14.71630859375 5.2109375 15.6875 C5.23903084308273 17.68620575871722 5.267695435121539 19.684903554184643 5.296875 21.68359375 C5.337950019641539 24.832189600855997 5.374836885805848 27.98064076165747 5.4013671875 31.12939453125 C5.42920458147529 34.169909890446206 5.475101702037193 37.20975017131707 5.5234375 40.25 C5.526690368652339 41.17643310546873 5.529943237304678 42.10286621093752 5.533294677734375 43.057373046875 C5.666255452941073 50.23030376720453 6.286323499318371 57.98480388813152 11.25 63.5 C17.52338350097375 66.92184554598566 23.114356823399703 67.71827525536293 30 66 C35.001266719497266 63.49936664025137 36.99948268980478 61.17171037059967 39 56 C39.42455240421225 52.4579810635754 39.417292675185195 48.94305849724117 39.40625 45.37890625 C39.41708618164063 44.36078353881834 39.427922363281255 43.342660827636735 39.4390869140625 42.29368591308594 C39.47326236116214 39.04989228303674 39.488922746004164 35.806449751689854 39.5 32.5625 C39.514604348441026 28.29263299601928 39.54834963550047 24.023544711200827 39.59375 19.75390625 C39.590728759765625 18.78078994750979 39.58770751953125 17.80767364501952 39.5845947265625 16.805068969726563 C39.65523107631776 10.370371891250613 40.17730459832427 4.9363208521669435 44.84375 0.08203125 C47.548117210172734 -1.2750515710468449 49.48308768278321 -1.3663734342360385 52.5 -1.3125 C52.96921874999998 -1.3105664062500182 52.96921874999998 -1.3105664062500182 55.34375 -1.30078125 C59.276478058460896 -0.8554576316154794 61.15276853231131 -0.014345931498837672 63.703125 3.0390625 C65.50979220111174 7.163923157959971 65.6193513561521 10.909007382504 65.75 15.375 C65.78238769531248 16.315290527343734 65.81477539062502 17.255581054687525 65.84814453125 18.224365234375 C66.06067063343255 26.16100617007271 66.06340943683017 34.101459812020494 65.9107666015625 42.03912353515625 C65.87594922706052 44.00880063774122 65.86103527048908 45.97879796857342 65.8466796875 47.94873046875 C65.45222669024986 62.19511932737851 60.8336630857695 73.37248594280334 50.625 83.3125 C39.04374309673983 90.7575937235244 26.32629742424058 92.49310983412471 12.78515625 90.53515625 C1.363097167097635 88.05082164895691 -7.150549082674786 82.48141585314926 -14 73 C-21.38896676367534 61.256820679158864 -20.32467063894984 45.603259923529436 -20.2607421875 32.238525390625 C-20.249918739668374 29.54225694329574 -20.26075271003873 26.846640306581207 -20.2734375 24.150390625 C-20.27211737867526 22.414061048960434 -20.26955804524283 20.67773187340856 -20.265625 18.94140625 C-20.269673461914067 18.14650283813478 -20.273721923828134 17.35159942626956 -20.27789306640625 16.532608032226563 C-20.22827185726976 10.589120697307465 -20.02342686597882 5.02342686597882 -15.625 0.625 C-10.215454873817237 -2.7237660304941187 -5.854444925539838 -2.0339891377334993 0 0 Z " fill="#06B6CB" transform="translate(352,340)"/>
<path d="M0 0 C2.9576473005677144 2.292176657939933 3.815972784815358 3.4479183544462444 5 7 C5.103588189074458 8.414955481984805 5.155612934329952 9.834057135248202 5.173583984375 11.252685546875 C5.187073822021489 12.107550506591792 5.200563659667978 12.962415466308585 5.2144622802734375 13.843185424804688 C5.224900665283258 14.765051422119143 5.235339050292964 15.686917419433598 5.24609375 16.63671875 C5.279046880484316 18.59570734623918 5.312258267362154 20.554691612082195 5.345703125 22.513671875 C5.392989039523286 25.59656649907521 5.437397039845791 28.679445446323825 5.476806640625 31.762451171875 C5.516757795046942 34.74156330370931 5.568259860771718 37.720311012182606 5.62109375 40.69921875 C5.62950790405273 41.61096359252929 5.63792205810546 42.522708435058576 5.6465911865234375 43.46208190917969 C5.771718232498188 50.00810047985226 6.245429097138981 56.07571516189836 9.6875 61.8125 C13.49852717155818 65.41752570282529 17.256492393694998 66.80979917022125 22.4375 67.375 C28.402284310503433 66.74712796731546 32.57047942467307 65.75940993886394 36.4375 61 C38.35337452231295 57.321520917159205 39.12406673312148 54.63706210471531 39.15771484375 50.5478515625 C39.16797698974608 49.64971740722655 39.17823913574216 48.75158325195309 39.188812255859375 47.82623291015625 C39.19611358642578 46.8574822998047 39.20341491699219 45.88873168945315 39.2109375 44.890625 C39.239012309522764 42.83592961832079 39.26767681436843 40.78124222501299 39.296875 38.7265625 C39.33808122463836 35.4899116647137 39.374972201089804 32.253408970057706 39.4013671875 29.0166015625 C39.42906150973067 25.89096305694477 39.47493953150638 22.766000870075004 39.5234375 19.640625 C39.52669036865234 18.679971313476585 39.52994323730468 17.719317626953114 39.533294677734375 16.72955322265625 C39.6488519151784 10.37678531322581 40.2245420180717 4.973704980637422 44.75 0.125 C49.30610116009484 -2.1530505800474202 52.814292467118776 -2.341644543372581 57.6875 -0.9375 C61.65133823712972 1.3809714217173905 62.89813555037699 2.9169644281382148 65 7 C65.56277287164232 10.548521147782935 65.5372858683694 14.04212700715459 65.49609375 17.62890625 C65.49754898071285 18.65499496459961 65.49900421142581 19.68108367919922 65.50050354003906 20.738265991210938 C65.49884678951184 22.90765217684418 65.48731069654343 25.077050386801375 65.466552734375 27.246337890625 C65.4378076957787 30.527378724687594 65.44590828973742 33.80678009843854 65.458984375 37.087890625 C65.44367845908573 53.480214203487435 65.17283196750373 68.69280987443494 52.9296875 81.09765625 C42.43717651355087 89.95423810415332 29.342437507726345 91.88403880419293 16 91 C4.369340057111685 89.2649584408839 -4.781587677852826 84.50494754227054 -12.3125 75.41015625 C-20.844126940073124 63.22493906938632 -20.350831568525905 47.70014860080403 -20.315673828125 33.4443359375 C-20.312489557168874 30.74113483965317 -20.336136661392402 28.039006002828216 -20.361328125 25.3359375 C-20.363599567173765 23.59375135909488 -20.36430533588498 21.85156232065748 -20.36328125 20.109375 C-20.372490997314458 19.313358764648456 -20.381700744628915 18.517342529296855 -20.391189575195313 17.69720458984375 C-20.345964559264587 12.168272731173658 -19.300989918311586 8.046977737429529 -17 3 C-11.390113750552928 -2.4696390932108443 -7.081537678221139 -2.4074666971167744 0 0 Z " fill="#06B6CB" transform="translate(530,340)"/>
<path d="M0 0 C10.259898599646931 6.9709391695182035 15.582892758927755 16.167220586578537 18.30859375 28.20703125 C19.831797130063705 38.91668602300541 20.262894431718223 50.705334656121806 15.8125 60.75 C15.636542968750064 61.17410156250003 15.636542968750064 61.17410156250003 14.74609375 63.3203125 C12.166330315163123 69.02473989716395 8.97867781406535 74.05287748851242 3.8125 77.75 C2.822499999999991 77.75 1.8324999999999818 77.75 0.8125 77.75 C0.8125 78.40999999999997 0.8125 79.07 0.8125 79.75 C-10.00622386775808 85.79639258078294 -21.788109966764978 86.81572214251821 -33.79296875 83.86328125 C-43.11063860996342 80.3086315315602 -50.05788250339026 74.24592897875999 -55.1875 65.75 C-55.1875 64.43 -55.1875 63.110000000000014 -55.1875 61.75 C-55.84749999999997 61.75 -56.50750000000005 61.75 -57.1875 61.75 C-59.98161374443907 54.64829423288404 -60.514558049964876 47.73236438678629 -60.5625 40.1875 C-60.576035156249986 39.313918457031264 -60.58957031249997 38.44033691406253 -60.603515625 37.540283203125 C-60.52090405695867 25.289676092334844 -55.9408506653466 12.503350665346659 -47.1875 3.75 C-33.36749654237269 -6.674571573641231 -15.192073087126118 -8.818387251722697 0 0 Z M-36.5 18.125 C-42.98286628560027 28.20945866648924 -43.34079437518585 39.45868013767557 -41.5625 51.0625 C-39.920319011051106 58.22520431350034 -35.206516705410195 63.683096820668766 -29.1875 67.75 C-23.67033507238807 69.58905497587068 -17.203263003398433 70.08541139529575 -11.796875 67.69140625 C-5.773816320899641 63.449977523686925 -2.015545844914186 58.45550515599058 -0.40625 51.25390625 C1.4186835809343847 39.33180726402759 1.462821048294927 27.791914730275096 -5.375 17.4375 C-10.125430876831842 12.898199384360623 -14.559821569062251 10.564188328640057 -21.1875 10.1875 C-27.76571201960428 10.470869133152178 -32.018009949890256 13.521875083671034 -36.5 18.125 Z " fill="#06B6CB" transform="translate(1069.1875,344.25)"/>
<path d="M0 0 C2.287025286954645 1.770600222158464 2.846588149755462 3.0847176568062764 3.3203125 5.911041259765625 C3.896012539710796 11.161039693978068 4.122640950373011 16.307182359550836 4.0625 21.5859375 C4.058713378906305 22.36836822509764 4.0549267578124955 23.150798950195338 4.051025390625 23.956939697265625 C4.034908038570848 27.25684418327569 4.006763494333427 30.556617185660002 3.9794921875 33.8564453125 C3.7748324068018064 61.03310987573576 3.7748324068018064 61.03310987573576 9 68 C13.223843942760595 71.72692112596525 18.537775697600523 72.12802088208747 24 72 C28.074214826313323 71.20521945623057 30.546818935657257 69.5144217487134 33.3125 66.375 C37.1598523107408 58.68029537851851 37.281593931236785 50.78890541579574 37.2734375 42.32421875 C37.29370477192299 40.09309374448526 37.31455509584771 37.861973972087526 37.3359375 35.630859375 C37.35862428014059 32.14375331013724 37.3750510439088 28.65685451328011 37.380859375 25.169677734375 C37.39035095305621 21.783319973386085 37.424058387391256 18.397873206894246 37.4609375 15.01171875 C37.45589202880865 13.966908416748026 37.45084655761718 12.92209808349611 37.445648193359375 11.845626831054688 C37.5437346851337 4.659655531063834 37.5437346851337 4.659655531063834 39.81884765625 1.370361328125 C42.93575100914438 -0.5879080383173232 45.33459059946108 -0.9356945719203509 49 -1 C52.57387602291419 0.5883893435174059 53.81089571914117 1.7163435787117578 56 5 C56.26069641113281 7.158020019531193 56.26069641113281 7.158020019531193 56.274658203125 9.6923828125 C56.28419021606442 10.644778442382801 56.29372222900395 11.597174072265602 56.30354309082031 12.57843017578125 C56.302631683349546 13.609579467773415 56.30172027587889 14.640728759765636 56.30078125 15.703125 C56.305066375732395 16.77310729980468 56.30935150146479 17.843089599609357 56.31376647949219 18.94549560546875 C56.3195175441075 21.21853936297589 56.32000435779685 23.49160152975719 56.315673828125 25.7646484375 C56.31255008805306 29.194995611845854 56.33583645603494 32.62444932664829 56.361328125 36.0546875 C56.45728341267136 68.33643043775328 56.45728341267136 68.33643043775328 47 79 C38.90667544552514 86.88034232935706 29.76650105600902 88.26172231239116 18.92822265625 88.24658203125 C7.514604192300112 88.07903846642625 -0.25010226200345187 84.90961711960756 -8.25 76.6875 C-12.781961494593247 69.72770199044612 -15.100293474895466 62.869038038479346 -15.1611328125 54.5546875 C-15.170740356445322 53.49008300781247 -15.180347900390643 52.425478515625 -15.19024658203125 51.32861328125 C-15.194496459960988 50.188920898437516 -15.198746337890611 49.04922851562503 -15.203125 47.875 C-15.208825073242224 46.69534667968753 -15.214525146484334 45.51569335937501 -15.22039794921875 44.30029296875 C-15.229832439485222 41.80892836004955 -15.236375759381758 39.31755135917683 -15.240234375 36.826171875 C-15.249964004564163 33.014103011757584 -15.281012603289014 29.202567964326136 -15.3125 25.390625 C-15.319028064290478 22.968753197707883 -15.324279305902905 20.546877547069244 -15.328125 18.125 C-15.340471801757758 16.985307617187516 -15.35281860351563 15.845615234374975 -15.36553955078125 14.67138671875 C-15.362538452148442 13.606782226562473 -15.359537353515634 12.542177734375002 -15.3564453125 11.4453125 C-15.35826812744142 10.978752441406243 -15.35826812744142 10.978752441406243 -15.36749267578125 8.61767578125 C-14.835281996542221 4.826702253396661 -13.285051380600521 2.047078902711519 -10.3125 -0.375 C-6.736045190360301 -1.3416094080107541 -3.5474463004626386 -1.0113995835361607 0 0 Z " fill="#06B6CB" transform="translate(805,341)"/>
<path d="M0 0 C2.6501531665539915 1.9399121179174585 4.284691240220809 3.4798842965059293 5.23046875 6.66796875 C5.535101839353047 10.613338760889121 4.818053834064358 12.416232564570976 2.578125 15.7421875 C-0.359375 17.6796875 -0.359375 17.6796875 -3.546875 17.8046875 C-6.830739630822336 16.835678264675323 -9.102651439330884 15.763876638899887 -12.046875 14.1171875 C-17.75273787475703 11.124663087092301 -23.019835988267232 10.542299618483241 -29.359375 11.6796875 C-32.671875 13.6796875 -32.671875 13.6796875 -34.359375 16.6796875 C-34.88558479701055 19.699414176026153 -34.66341716247507 21.895381261201692 -33.359375 24.6796875 C-27.97581592858137 28.525086836727496 -21.50868675622587 29.92305509806289 -15.228759765625 31.824951171875 C-7.227260659794638 34.27113180451062 1.122126693345308 37.27081587952165 5.8984375 44.61328125 C9.765384794375223 52.19844709665898 9.575343751292166 59.801815301786746 7.515625 67.9296875 C5.383042550960454 74.17865002509234 1.85921379975548 78.64920089971463 -3.859375 81.9921875 C-15.563091823211607 87.11256361015512 -30.041770824180503 86.81944536769345 -41.8984375 82.34375 C-53.10203524900976 76.97365570181285 -53.10203524900976 76.97365570181285 -55.109375 71.71484375 C-55.578788489852286 68.01087793163362 -55.57515229650562 66.1300053361856 -53.921875 62.6796875 C-51.09867621643161 60.476215278678296 -49.22222791795048 59.90629654942927 -45.63671875 60.11328125 C-41.89411927646415 61.044116453538095 -38.94902951742779 63.132529461237596 -35.73828125 65.2109375 C-30.216230771054597 68.6202822948826 -24.67365399206892 69.28104740400659 -18.359375 68.6796875 C-12.859375 65.6796875 -12.859375 65.6796875 -11.359375 62.6796875 C-10.984375 59.3046875 -10.984375 59.3046875 -11.359375 55.6796875 C-16.271810513843548 50.324500287483716 -23.926284444172325 48.95951460331116 -30.63671875 46.85546875 C-39.57677796217649 43.92219442025322 -47.8470259032224 40.32835660215693 -52.359375 31.6796875 C-54.791517601024225 23.873824422388168 -54.06061287597254 14.935711393543158 -50.359375 7.6796875 C-39.88530226015541 -9.25645935711725 -15.806072290069096 -8.845119923912819 0 0 Z " fill="#06B6CB" transform="translate(1154.359375,344.3203125)"/>
<path d="M0 0 C0 0.660000000000025 0 1.3199999999999932 0 2 C0.4331250000000182 2.030937499999993 0.4331250000000182 2.030937499999993 2.625 2.1875 C7.095769399682808 3.263796336960695 8.786725028853539 4.711997703943098 12 8 C13.247869211798047 11.119673029495175 13.158170578702425 12.476820393522587 12.1875 15.6875 C11 18 11 18 9 20 C2.679557732332114 21.269433436423753 -1.4409027467523856 19.43313264092319 -6.7421875 16.19140625 C-10.987729904383968 13.951111382634792 -15.38116413313378 13.341549839187905 -20.05078125 14.515625 C-23.47828710530996 15.849726657967437 -24.93653069311381 16.904796039670714 -27 20 C-27.09075765054297 25.71773198420533 -27.09075765054297 25.71773198420533 -26 28 C-21.29153870741129 31.214660121082147 -16.637297490558694 32.91607343775024 -11.1875 34.4375 C-1.7881707089395604 37.23309776628241 7.725044749896028 40.15724984719333 13.18359375 48.89453125 C16.752463770286795 55.748243572696026 17.399197695866064 63.10654923477847 15.26953125 70.5546875 C12.345179863072303 77.6447475972858 8.823834352151152 82.40761927135009 1.9375 85.875 C-8.815457610872727 89.98720779920757 -23.091371410024294 89.96334721416906 -33.6640625 85.27734375 C-43.86842105263156 79.6973684210526 -43.86842105263156 79.6973684210526 -47 75 C-47.332758644976366 71.09008592152816 -47.20387919223185 68.30581878834772 -45 65 C-41.884814305467785 63.44240715273389 -39.34460743826685 63.27016298168405 -36 64 C-32.77145951404452 65.63095520672942 -29.734238537020588 67.44740091900354 -26.671875 69.37109375 C-21.35950606154711 72.60977481335499 -16.07219566851643 72.64966430119648 -10 72 C-6.844990329868438 70.71236549246083 -4.560443068062227 69.12088613612457 -3 66 C-2.478004531720785 62.085033987906115 -2.610138650869885 60.52387618789356 -5 57.3125 C-9.528710320676282 53.82161912781203 -14.838608163085837 52.36911218378435 -20.21875 50.60546875 C-38.43057711694007 44.63183875439637 -38.43057711694007 44.63183875439637 -43.5 36.5 C-46.342296594103686 29.846731739362724 -46.19009533906194 21.928367800620265 -44.1171875 15.0859375 C-40.58458034475518 7.342275457708297 -35.66722658182141 2.886862290064755 -27.875 -0.375 C-18.576352314640758 -3.440488247920598 -9.306131096536319 -2.523696568552225 0 0 Z " fill="#06B6CB" transform="translate(700,341)"/>
<path d="M0 0 C3.2550132277405055 2.3369325737624536 4.236192215849428 4.170800536138302 5 8 C5.139293562083253 9.366766319038561 5.243653006605655 10.737456695992194 5.31640625 12.109375 C5.358300781250023 12.863476562500011 5.4001953125000455 13.617578125000023 5.443359375 14.39453125 C5.482675781250009 15.17183593750002 5.521992187500018 15.949140624999984 5.5625 16.75 C5.605683593749973 17.54277343749999 5.648867187499945 18.335546874999977 5.693359375 19.15234375 C5.799029914593916 21.10137814695497 5.899979663246768 23.05066747944653 6 25 C6.518203125000014 25.024492187500016 6.518203125000014 25.024492187500016 9.140625 25.1484375 C10.510442079904578 25.22349597013175 11.880232479781284 25.29904246653132 13.25 25.375 C13.931914062500027 25.405937499999993 14.613828125000055 25.436874999999986 15.31640625 25.46875 C18.95944435127626 25.680965811724832 21.94788949131862 25.899785343036058 25 28 C26.545868757518292 31.091737515036584 26.293595213475896 33.59429552367931 26 37 C24.45703125 39.19140625 24.45703125 39.19140625 22 41 C19.34564441196403 41.371379469475755 17.025177828412666 41.559961515490045 14.375 41.5625 C11.857987335666962 41.57918474304006 9.514435793517464 41.72029110025272 7 42 C3.7662031398444924 46.850695290233205 4.801334323247488 52.41619377371512 4.93359375 58.0791015625 C4.9830709397296005 60.2553703048701 5.023250678321915 62.43185427332486 5.05859375 64.6083984375 C5.114916541178673 67.95546313092461 5.183772476935928 71.30154146964855 5.265472412109375 74.64804077148438 C5.296707438528983 76.00261934422417 5.32345465788319 77.35730917846206 5.345611572265625 78.71206665039063 C5.379141701722574 80.64557815618105 5.43339890006223 82.57869548571409 5.48828125 84.51171875 C5.51446533203125 85.64053466796872 5.5406494140625 86.7693505859375 5.567626953125 87.932373046875 C6.046152274297583 91.32744400143952 6.974227694319552 93.25705772863034 9 96 C12.436712288443005 97.7183561442215 16.710199432865352 96.86765907363645 20.501953125 96.609375 C22.49609375 96.546875 22.49609375 96.546875 26 97 C28.618406828833713 100.04961271532818 28.99157509060683 101.51978016458776 29.0625 105.5625 C28 109 28 109 25.125 111.375 C17.988417706517794 115.08602279261078 9.863946949468072 115.07512009801826 2.06640625 113.3515625 C-3.8604408804440027 111.24063064532129 -7.667814393219146 108.32239114453279 -11 103 C-14.220620397112384 96.07574081411502 -14.467622779459816 89.27482918353701 -14.51171875 81.74609375 C-14.529669952392624 80.60463394165038 -14.547621154785134 79.46317413330075 -14.566116333007813 78.28712463378906 C-14.619944203825298 74.67061974649027 -14.654027230696329 71.05424476382035 -14.6875 67.4375 C-14.720697291744045 64.97328932454502 -14.755189157909058 62.509095727929434 -14.791015625 60.044921875 C-14.875654805378304 54.03006447881148 -14.944120376198725 48.01518968416315 -15 42 C-15.30997924804683 41.96970703124998 -15.30997924804683 41.96970703124998 -16.878662109375 41.81640625 C-17.690852050781245 41.73261718750001 -18.50304199218749 41.64882812500002 -19.33984375 41.5625 C-20.145427246093732 41.48128906249997 -20.951010742187464 41.40007812499999 -21.781005859375 41.31640625 C-24 41 -24 41 -26.5625 40 C-28.64397043157237 37.10404113868191 -28.556871320714208 34.59477292374942 -28.375 31.09375 C-28 29 -28 29 -26.5 27 C-23.01208317917508 25.60483327167003 -19.739198974829037 25.367790063097914 -16 25 C-14.124876877850966 23.124876877850966 -14.69217027566333 19.889015548575344 -14.5625 17.375 C-13.736342080639702 5.070254019224251 -13.736342080639702 5.070254019224251 -10.375 1.0625 C-6.89157455254292 -0.49587454228338856 -3.749017568829913 -0.700535110397368 0 0 Z " fill="#06B6CB" transform="translate(750,315)"/>
<path d="M0 0 C4.147770170072135 3.519320144303663 4.543355251349681 7.541852223911576 5.0625 12.75 C5.2167600881762155 16.11552337565371 5.246334655721341 19.478997005564793 5.2734375 22.84765625 C5.301488533459633 24.8027429995185 5.330152855905169 26.75782102907374 5.359375 28.712890625 C5.400692012603827 31.769611753887602 5.437617357780027 34.826166748139656 5.4638671875 37.883056640625 C5.4915069420505915 40.850756148622054 5.537351754635608 43.81773552738866 5.5859375 46.78515625 C5.589190368652339 47.69467544555664 5.592443237304678 48.60419464111328 5.595794677734375 49.54127502441406 C5.69423474007516 54.638824599128384 6.059793407873826 58.43016533137694 9.0625 62.75 C12.626151992727841 65.58425609361859 15.314221005596266 66.11777850086469 19.80859375 66.12109375 C20.350966796875014 66.12979492187503 20.350966796875014 66.12979492187503 23.095703125 66.173828125 C25.361315840880195 66.18292697124855 27.6269475138742 66.18814878958773 29.892578125 66.189453125 C36.20310038439601 66.29806151996883 40.31287452579352 66.39142430754634 45.0625 70.75 C46.78712159787426 74.19924319574852 46.42860103549458 77.97131431221652 46.0625 81.75 C44.839699269798075 84.62358171597458 43.97826938748062 86.14797747640341 41.377197265625 87.85791015625 C36.597006284518045 89.7002071549806 31.192511296828684 89.1217802573936 26.120361328125 89.12060546875 C24.030556860628167 89.12493666971892 21.942940786771942 89.1611528000517 19.853515625 89.19921875 C9.719979302861987 89.28413665214083 -0.12492513793966964 87.87761329235059 -8.3125 81.40234375 C-20.958695574075477 68.54335161578388 -20.429695948828737 51.8944348179059 -20.32861328125 35.0732421875 C-20.3124289775227 31.860903114352425 -20.32858198063741 28.649802594188998 -20.34765625 25.4375 C-20.345675443613686 23.37760141526843 -20.34183514184224 21.31770359440128 -20.3359375 19.2578125 C-20.3420101928711 18.306655578613288 -20.3480828857422 17.355498657226576 -20.354339599609375 16.375518798828125 C-20.29499521433877 10.737043803423205 -19.639895015433353 6.7321561307913385 -16.9375 1.75 C-12.203869810931735 -2.5659569370916415 -5.663035249378083 -2.4098022337778957 0 0 Z " fill="#06B6CB" transform="translate(454.9375,340.25)"/>
<path d="M0 0 C3.861242889702055 1.6788012563922052 5.472520267555865 3.1286289539777385 7 7 C7.4140625 9.90625 7.4140625 9.90625 7.625 13.5 C7.664396972656277 14.167814941406277 7.703793945312498 14.835629882812498 7.744384765625 15.523681640625 C8.167932401793678 24.027214951395706 8.021063269448234 32.55266761902698 7.87548828125 41.0625 C7.708120484821336 57.47830030725197 7.708120484821336 57.47830030725197 12.4375 63.5 C15.860322479519482 66.83933900440923 18.26858459092813 67.11733552570354 22.859375 67.2109375 C23.810703125000032 67.23929687499998 24.762031250000007 67.26765625000002 25.7421875 67.296875 C27.731592351505867 67.34854785328588 29.721201034325475 67.39293774997435 31.7109375 67.4296875 C38.36315047194137 67.6448534182299 44.19342141734376 68.01801025592772 49 73.125 C50.44038253172732 77.26609977871601 50.29869943117649 80.81443255614812 49 85 C45.82166610626683 88.34561462498232 43.02923487568751 89.86253080873917 38.38720703125 90.177001953125 C5.218666873929976 90.82650293451735 5.218666873929976 90.82650293451735 -6.0625 81.18359375 C-14.564033928192941 71.60222789141153 -16.311611407240804 59.77406449206569 -16.30078125 47.4921875 C-16.305066375732423 46.40793487548831 -16.309351501464846 45.32368225097656 -16.313766479492188 44.206573486328125 C-16.31948476239083 41.9256459138802 -16.320028595891017 39.64470011447918 -16.315673828125 37.36376953125 C-16.3125035630639 33.878916629472656 -16.336040741090756 30.394905057841072 -16.361328125 26.91015625 C-16.36360036915994 24.68750106612066 -16.364304962722485 22.464843609597608 -16.36328125 20.2421875 C-16.372490997314458 19.20456268310545 -16.381700744628915 18.166937866210958 -16.391189575195313 17.097869873046875 C-16.356405669244282 11.654427608041715 -16.124278959968308 7.6738948591872145 -13 3 C-9.024317078013723 -0.4077282188453637 -5.026857053040146 -0.7530109755566059 0 0 Z " fill="#06B6CB" transform="translate(272,339)"/>
<path d="M0 0 C7.409717662508228 0.48588312541039613 7.409717662508228 0.48588312541039613 9.9375 2.6875 C12.17663643699666 7.560914598169234 12.128689823380796 12.744120856563143 12.145263671875 18.027587890625 C12.148622283935538 18.70318252563476 12.151980895996076 19.378777160644518 12.155441284179688 20.074844360351563 C12.164880525866124 22.29080073867135 12.16689046353963 24.50668106637471 12.16796875 26.72265625 C12.171184913390107 28.271520288574834 12.174549255208035 29.82038402589427 12.178054809570313 31.369247436523438 C12.18402753308635 34.60790715249783 12.185896490989876 37.84654024679003 12.185302734375 41.085205078125 C12.18520091723326 45.23007910006652 12.198881541470769 49.37478257763945 12.21607494354248 53.51961612701416 C12.227201822477696 56.715253519160456 12.22922177337091 59.91084965992485 12.228693008422852 63.10650444030762 C12.229870987192271 64.63468453075012 12.23428254917792 66.16286575856338 12.242025375366211 67.69102668762207 C12.251844517282507 69.82807485220576 12.248940423164527 71.96475225585442 12.242919921875 74.101806640625 C12.244344940185556 75.3161488342285 12.245769958496112 76.530491027832 12.247238159179688 77.78163146972656 C12.000961603846804 80.98748253275562 11.518916353556506 83.17554293102461 10 86 C6.033596042240561 87.89305643438519 2.3560572321144946 88.64877448137872 -2 88 C-5.417926712927965 85.33842502593075 -6.846302241615717 83.8556211712019 -7.6214599609375 79.54039001464844 C-7.644910435784027 78.20022592810346 -7.64112954095674 76.85940618767194 -7.615234375 75.519287109375 C-7.620783386230414 74.7837107849121 -7.626332397460942 74.0481344604492 -7.632049560546875 73.29026794433594 C-7.643821976118716 70.86862209447645 -7.619600263333609 68.44885752768539 -7.59375 66.02734375 C-7.592038334206677 64.34013453473972 -7.592105149024519 62.65292265927559 -7.5938720703125 60.96571350097656 C-7.592220276107696 57.43415801250296 -7.573547013109987 53.90323843134132 -7.5419921875 50.371826171875 C-7.502284220260208 45.84664513605247 -7.497951229804357 41.32229545740097 -7.505455017089844 36.79697322845459 C-7.508525106442221 33.31478771980704 -7.4964033786804976 29.832788911804073 -7.4793243408203125 26.350648880004883 C-7.47229721535723 24.682105851009112 -7.469169460318994 23.01354166599549 -7.4700164794921875 21.34498405456543 C-7.468217598839942 19.013373306631138 -7.446830535332083 16.68275700157392 -7.419921875 14.351318359375 C-7.42285247802738 13.662898559570294 -7.425783081054647 12.974478759765645 -7.428802490234375 12.26519775390625 C-7.375525683172555 9.271556474046463 -7.132602959944165 7.237419088729155 -5.6612548828125 4.6030426025390625 C-4 3 -4 3 -1 2 C-0.6699999999999591 1.339999999999975 -0.34000000000003183 0.6800000000000068 0 0 Z " fill="#06B6CB" transform="translate(981,340)"/>
<path d="M0 0 C1.298085937499991 -0.01933593749998863 2.596171874999982 -0.03867187499997726 3.93359375 -0.05859375 C8.069936623387775 0.5068696998603173 9.640775331841041 1.526438560556926 12.5625 4.4375 C16.26203948723264 9.667883412984054 16.400235398249265 15.251146289851306 15.5625 21.4375 C13.55619436523989 25.450111269520107 11.423125955107594 28.16654355581909 7.5625 30.4375 C4.06640625 30.8359375 4.06640625 30.8359375 0.125 30.8125 C-1.173085937499991 30.820234374999984 -2.471171874999982 30.827968750000025 -3.80859375 30.8359375 C-8.27819723890093 30.34519524395273 -10.953786445223159 29.232047400051272 -13.8359375 25.74609375 C-16.750000400992803 20.162749231697774 -17.041034115782622 15.535015077211426 -15.4375 9.4375 C-11.599726686152962 2.1589644047729166 -8.185966861976226 0.00811295030916881 0 0 Z " fill="#FD0000" transform="translate(621.4375,402.5625)"/>
<path d="M0 0 C3.10977399476144 1.6124754046911107 5.219441600202799 3.049754991551197 7.4375 5.75 C8.64233415764022 10.569336630560827 7.742656754243967 14.633511572191196 5.4375 18.875 C2.169817317819934 21.72374900497755 -0.6715111907976734 22.798111529421533 -5 23 C-9.68900227305528 21.84696665416675 -11.422842668409203 20.91984449722281 -14 16.8125 C-15.230680950860346 12.120528874845036 -15.156474516609364 9.702996367544642 -14 5 C-10.083535711236664 0.07283524962031152 -6.1584891339847445 -0.835631425243264 0 0 Z " fill="#06B6CB" transform="translate(987,306)"/>
</svg>
